<svg xmlns="http://www.w3.org/2000/svg"
 xmlns:xlink="http://www.w3.org/1999/xlink"
 width="11px" height="15px"  viewBox="0 0 11 15">
<path fill-rule="evenodd"  fill="#cacaca"
 d="M8.608185,7.645508 C8.608185,7.645508 5.490814,13.369141 5.490814,13.369141 C5.490814,13.369141 2.2855225,7.67749 2.2855225,7.67749 C2.1394043,7.4682617 2.0121918,7.2460938 1.9092865,7.0095215 C1.9092865,7.0095215 1.9008026,6.9941406 1.9008026,6.9941406 C1.9008026,6.9941406 1.9010925,6.9941406 1.9010925,6.9941406 C1.701477,6.5290527 1.5891418,6.0178223 1.5891418,5.4797363 C1.5891418,3.3566895 3.3104248,1.635498 5.4335938,1.635498 C7.5568542,1.635498 9.277954,3.3566895 9.277954,5.4797363 C9.277954,6.2836914 9.029907,7.0283203 8.608185,7.645508 ZM5.4335938,3.691162 C4.518921,3.691162 3.7774353,4.432617 3.7774353,5.347412 C3.7774353,6.261963 4.518921,7.003418 5.4335938,7.003418 C6.348175,7.003418 7.0896454,6.261963 7.0896454,5.347412 C7.0896454,4.432617 6.348175,3.691162 5.4335938,3.691162 Z"/>
</svg>