<svg xmlns="http://www.w3.org/2000/svg"
 xmlns:xlink="http://www.w3.org/1999/xlink"
 width="15px" height="10px"  viewBox="0 0 15 10">
<path fill-rule="evenodd"  fill="#cacaca"
 d="M2.7898865,8.988037 C2.7898865,8.988037 13.266571,8.988037 13.266571,8.988037 C13.266571,8.988037 9.984787,5.3864746 9.984787,5.3864746 C9.984787,5.3864746 8.00238,6.6689453 8.00238,6.6689453 C8.00238,6.6689453 6.0442047,5.4074707 6.0442047,5.4074707 C6.0442047,5.4074707 2.7898865,8.988037 2.7898865,8.988037 ZM1.9879456,8.093018 C1.9879456,8.093018 2.0023499,1.8564453 2.0023499,1.8564453 C2.0023499,1.8564453 5.3034973,4.805176 5.3034973,4.805176 C5.3034973,4.805176 1.9879456,8.093018 1.9879456,8.093018 ZM2.8791504,1.0070801 C2.8791504,1.0070801 8.042923,5.5319824 8.042923,5.5319824 C8.042923,5.5319824 13.268188,1.0070801 13.268188,1.0070801 C13.268188,1.0070801 2.8791504,1.0070801 2.8791504,1.0070801 ZM13.992798,7.9821777 C13.992798,7.9821777 13.978485,1.8564453 13.978485,1.8564453 C13.978485,1.8564453 10.725418,4.805176 10.725418,4.805176 C10.725418,4.805176 13.992798,7.9821777 13.992798,7.9821777 Z"/>
</svg>