<svg xmlns="http://www.w3.org/2000/svg"
 xmlns:xlink="http://www.w3.org/1999/xlink"
 width="14px" height="14px"  viewBox="0 0 14 14">
<path fill-rule="evenodd"  fill="#cacaca"
 d="M10.9999695,7.0004883 C10.447708,7.0004883 9.999954,6.5527344 9.999954,6.000244 C9.999954,6.000244 9.999954,5.0004883 9.999954,5.0004883 C9.999954,4.5949707 10.243423,4.25 10.589996,4.0932617 C10.589996,4.0932617 9.873108,4.1555176 9.873108,4.1555176 C9.792816,3.8063965 9.611145,3.4609375 9.204117,3.4836426 C8.394257,3.5288086 5.2448425,3.3486328 4.7048645,3.5288086 C4.296417,3.665039 4.154312,4.003174 4.0701904,4.665039 C4.0701904,4.665039 3.934784,4.677002 3.934784,4.677002 C3.9702454,4.779541 3.9999084,4.885742 3.9999084,5.0004883 C3.9999084,5.0004883 3.9999084,6.000244 3.9999084,6.000244 C3.9999084,6.5527344 3.5522614,7.0004883 2.9999847,7.0004883 C2.4477081,7.0004883 1.9999695,6.5527344 1.9999695,6.000244 C1.9999695,6.000244 1.9999695,5.0004883 1.9999695,5.0004883 C1.9999695,4.9450684 2.0228577,4.897217 2.0315247,4.8442383 C2.0315247,4.8442383 2.0311432,4.8442383 2.0311432,4.8442383 C2.0313416,4.8430176 2.032013,4.842285 2.032196,4.840576 C2.0493622,4.738037 2.0731049,4.640625 2.1190796,4.5510254 C2.5430756,3.2199707 4.513275,2.262207 5.0758514,2.121338 C5.6796265,1.9709473 6.471161,1.9523926 7.3749695,1.9379883 C7.9460297,1.9284668 7.835495,2.074707 8.891968,2.0368652 C9.948639,1.9997559 12.0,3.9692383 12.0,3.9692383 C12.0,3.9692383 11.19519,4.039795 11.19519,4.039795 C11.650574,4.133301 12.0,4.51709 12.0,5.0004883 C12.0,5.0004883 12.0,6.000244 12.0,6.000244 C12.0,6.5527344 11.552246,7.0004883 10.9999695,7.0004883 ZM2.7040558,10.060547 C3.5062866,9.096924 4.8500214,7.557617 5.8121796,6.850342 C7.14122,5.873291 7.9976196,6.7561035 11.15419,10.031494 C11.590485,10.102051 11.92247,10.441895 11.976349,10.883545 C11.995895,10.903809 12.0103,10.918457 12.030045,10.939209 C12.030045,10.939209 11.987503,10.938965 11.987503,10.938965 C11.988937,10.960449 12.0,10.978516 12.0,11.000488 C12.0,11.55249 11.552338,12.000244 10.9999695,12.000244 C10.9999695,12.000244 2.9999847,12.000244 2.9999847,12.000244 C2.4477081,12.000244 1.9999695,11.55249 1.9999695,11.000488 C1.9999695,10.5529785 2.298935,10.187988 2.7040558,10.060547 ZM6.874954,10.587402 C7.5961304,10.587402 8.180725,10.002686 8.180725,9.281494 C8.180725,8.560303 7.5961304,7.97583 6.874954,7.97583 C6.153778,7.97583 5.5691833,8.560303 5.5691833,9.281494 C5.5691833,10.002686 6.153778,10.587402 6.874954,10.587402 Z"/>
</svg>